<?xml version="1.0" encoding="utf-8"?>
<!-- Generator: Adobe Illustrator 24.0.2, SVG Export Plug-In . SVG Version: 6.00 Build 0)  -->
<svg version="1.1"
	 id="svg2" xmlns:cc="http://creativecommons.org/ns#" xmlns:dc="http://purl.org/dc/elements/1.1/" xmlns:rdf="http://www.w3.org/1999/02/22-rdf-syntax-ns#" xmlns:svg="http://www.w3.org/2000/svg"
	 xmlns="http://www.w3.org/2000/svg" xmlns:xlink="http://www.w3.org/1999/xlink" x="0px" y="0px" viewBox="0 0 181.3 46.2"
	 style="enable-background:new 0 0 181.3 46.2;" xml:space="preserve">
<style type="text/css">
	.st0{clip-path:url(#SVGID_2_);}
	.st1{fill:#FFFFFF;}
</style>
<g id="g10" transform="matrix(1.3333333,0,0,-1.3333333,0,46.222267)">
	<g id="g12">
		<g>
			<defs>
				<rect id="SVGID_1_" x="-22.7" y="-5.8" width="181.3" height="46.2"/>
			</defs>
			<clipPath id="SVGID_2_">
				<use xlink:href="#SVGID_1_"  style="overflow:visible;"/>
			</clipPath>
			<g id="g14" class="st0">
				<g id="g20" transform="translate(9.8945,28.1003)">
					<path id="path22" class="st1" d="M0,0v-14.4c0-2.2-0.6-4-1.8-5.4c-1.2-1.4-2.8-2.1-4.7-2.1c-0.6,0-1.2,0.1-1.9,0.4v6.1
						c0.3-0.1,0.6-0.2,0.9-0.2c0.8,0,1.3,0.7,1.3,2V0L0,0z"/>
				</g>
				<g id="g24" transform="translate(28.4102,13.6159)">
					<path id="path26" class="st1" d="M0,0h-8.9C-9,0.4-9.1,0.9-9.1,1.2c0,0.5,0.1,1,0.3,1.5h3c-0.2,1.2-0.9,1.7-2,1.7
						c-0.7,0-1.3-0.3-1.8-0.9C-10,3-10.2,2.2-10.2,1.2c0-1,0.2-1.8,0.7-2.5c0.4-0.6,1-0.9,1.7-0.9c0.6,0,1.1,0.3,1.7,0.9l3.3-4
						C-4.4-6.5-6.1-7.2-8-7.2c-2.3,0-4.3,0.8-5.8,2.3c-1.6,1.6-2.4,3.5-2.4,5.8c0,2.3,0.8,4.2,2.4,5.8c1.6,1.6,3.5,2.4,5.9,2.4
						c2.3,0,4.2-0.8,5.7-2.3c1.5-1.5,2.3-3.4,2.3-5.7C0.1,0.9,0,0.5,0,0"/>
				</g>
				<g id="g28" transform="translate(30.832,22.1315)">
					<path id="path30" class="st1" d="M0,0h5.8v-8.4C5.8-9,5.9-9.5,6-9.8c0.1-0.3,0.4-0.4,0.7-0.4c0.7,0,1,0.6,1,1.8V0h5.8v-8.4
						c0-0.7,0.1-1.1,0.2-1.4c0.1-0.3,0.4-0.4,0.7-0.4c0.6,0,1,0.6,1,1.8V0h5.8v-9.6c0-1.8-0.6-3.2-1.8-4.5s-2.6-1.8-4.3-1.8
						c-1.7,0-3.3,0.7-4.7,2.2c-1.5-1.5-3.1-2.2-4.6-2.2c-1.9,0-3.5,0.7-4.7,2.1C0.5-12.7,0-11,0-8.9V0z"/>
				</g>
				<g id="g32" transform="translate(70.9414,13.6159)">
					<path id="path34" class="st1" d="M0,0h-8.9C-9,0.4-9.1,0.9-9.1,1.2c0,0.5,0.1,1,0.3,1.5h3c-0.2,1.2-0.9,1.7-2,1.7
						c-0.7,0-1.3-0.3-1.8-0.9C-10,3-10.2,2.2-10.2,1.2c0-1,0.2-1.8,0.7-2.5c0.4-0.6,1-0.9,1.7-0.9c0.6,0,1.1,0.3,1.7,0.9l3.3-4
						C-4.4-6.5-6.1-7.2-8-7.2c-2.3,0-4.3,0.8-5.8,2.3c-1.6,1.6-2.4,3.5-2.4,5.8c0,2.3,0.8,4.2,2.4,5.8c1.6,1.6,3.5,2.4,5.9,2.4
						c2.3,0,4.2-0.8,5.7-2.3c1.5-1.5,2.3-3.4,2.3-5.7C0.1,0.9,0,0.5,0,0"/>
				</g>
				<path id="path36" class="st1" d="M79.2,6.8h-5.8v21.3h5.8V6.8z"/>
				<g id="g44" transform="translate(118.1758,22.5065)">
					<path id="path46" class="st1" d="M-27.6-0.5v-6.3c-0.4,0.2-0.8,0.3-1.1,0.3c-1.1,0-1.6-0.8-1.6-2.4v-7.4h-5.8v8.5
						c0,2.3,0.6,4,1.8,5.4c1.2,1.3,2.9,2,4.9,2C-28.9-0.4-28.3-0.4-27.6-0.5"/>
				</g>
				<g id="g48" transform="translate(121.9102,-0.056)">
					<path id="path50" class="st1" d="M-26.7-0.1v5.1c0.8-0.3,1.5-0.5,2.1-0.5c1.9,0,3.1,1.1,3.7,3.2c-1-0.6-2-0.9-3-0.9
						c-1.4,0-2.6,0.5-3.6,1.6c-0.9,1.1-1.4,2.5-1.4,4.1v9.8h5.8v-8.4c0-0.9,0.4-1.4,1.2-1.4c0.7,0,1.1,0.5,1.1,1.5v8.2h5.8V8.4
						c0-2.6-0.7-4.7-2.2-6.3c-1.7-1.9-3.8-2.8-6.3-2.8C-24.6-0.8-25.6-0.6-26.7-0.1"/>
				</g>
			</g>
		</g>
	</g>
</g>
</svg>
