<?xml version="1.0" encoding="UTF-8" standalone="no"?>
<svg
   xmlns:dc="http://purl.org/dc/elements/1.1/"
   xmlns:cc="http://creativecommons.org/ns#"
   xmlns:rdf="http://www.w3.org/1999/02/22-rdf-syntax-ns#"
   xmlns:svg="http://www.w3.org/2000/svg"
   xmlns="http://www.w3.org/2000/svg"
   viewBox="0 0 340 76"
   height="76"
   width="340"
   xml:space="preserve"
   id="svg2"
   version="1.1"><metadata
     id="metadata8"><rdf:RDF><cc:Work
         rdf:about=""><dc:format>image/svg+xml</dc:format><dc:type
           rdf:resource="http://purl.org/dc/dcmitype/StillImage" /></cc:Work></rdf:RDF></metadata><defs
     id="defs6"><clipPath
       id="clipPath18"
       clipPathUnits="userSpaceOnUse"><path
         id="path16"
         d="M 0,57 H 255 V 0 H 0 Z" /></clipPath></defs><g
     transform="matrix(1.3333333,0,0,-1.3333333,0,76)"
     id="g10"><g
       id="g12"><g
         clip-path="url(#clipPath18)"
         id="g14"><g
           transform="translate(32.2349,39.5293)"
           id="g20"><path
             id="path22"
             style="fill:#ffffff;fill-opacity:1;fill-rule:nonzero;stroke:none"
             d="m 0,0 -0.359,0.225 c -1.353,0.793 -2.594,1.19 -3.721,1.19 -3.707,0 -5.56,-3.871 -5.56,-11.612 0,-5.66 1.149,-9.411 3.446,-11.253 l -0.19,-0.225 c -1.409,1.064 -2.414,2.46 -3.012,4.189 -0.6,1.73 -0.899,4.069 -0.899,7.019 0,8.311 2.058,12.466 6.173,12.466 C -2.248,1.999 -0.874,1.333 0,0 m 2.219,4.155 c 2.015,-1.033 3.608,-2.8 4.778,-5.301 1.17,-2.5 1.754,-5.39 1.754,-8.669 0,-4.822 -1.152,-8.715 -3.456,-11.68 -2.304,-2.965 -5.331,-4.447 -9.079,-4.447 -2.396,0 -4.637,0.86 -6.722,2.583 v 0.112 c 1.747,-1.362 3.939,-2.044 6.574,-2.044 3.537,0 6.44,1.415 8.709,4.245 2.269,2.83 3.404,6.446 3.404,10.849 0,3.279 -0.518,6.146 -1.554,8.602 C 5.591,0.861 4.122,2.695 2.219,3.908 Z M -4.524,3.369 c -4.764,0 -7.145,-4.447 -7.145,-13.342 0,-8.22 2.347,-12.331 7.04,-12.331 2.184,0 3.847,1.089 4.988,3.269 1.142,2.178 1.712,5.364 1.712,9.556 0,4.747 -0.549,8.056 -1.648,9.928 -1.156,1.947 -2.805,2.92 -4.947,2.92 m 0,1.932 c 3.425,0 6.162,-1.378 8.212,-4.133 2.051,-2.755 3.076,-6.439 3.076,-11.051 0,-4.357 -1.011,-7.832 -3.033,-10.422 -2.023,-2.591 -4.739,-3.885 -8.149,-3.885 -2.692,0 -5.088,0.913 -7.187,2.74 -3.087,2.695 -4.63,6.685 -4.63,11.971 0,4.522 1.057,8.116 3.171,10.782 2.114,2.665 4.96,3.998 8.54,3.998" /></g><g
           transform="translate(54.4077,43.3252)"
           id="g24"><path
             id="path26"
             style="fill:#ffffff;fill-opacity:1;fill-rule:nonzero;stroke:none"
             d="m 0,0 -2.072,-2.224 v -16.688 l -0.021,-1.55 0.656,-2.852 c 0.324,-0.57 0.937,-1.258 1.839,-2.067 l 0.042,-0.202 c -1.184,0.509 -2.002,1.25 -2.452,2.224 -0.451,0.973 -0.677,2.477 -0.677,4.514 v 16.846 l 2.389,2.471 z m 14.269,-0.314 -2.875,-2.539 v -13.948 c 0,-4.567 -0.338,-7.547 -1.015,-8.939 -1.381,-2.816 -4.08,-4.223 -8.096,-4.223 -3.467,0 -6.074,0.921 -7.822,2.763 l 0.17,-0.09 0.74,-0.449 c 1.733,-1.078 3.96,-1.617 6.679,-1.617 3.89,0 6.469,1.302 7.738,3.908 0.676,1.407 1.014,4.237 1.014,8.49 v 14.375 l 3.15,2.74 z M 13.55,1.213 9.766,-1.999 v -14.51 c 0,-2.666 -0.081,-4.582 -0.243,-5.75 -0.162,-1.168 -0.483,-2.127 -0.961,-2.875 -1.213,-1.917 -3.566,-2.875 -7.061,-2.875 -3.692,0 -6.272,0.958 -7.737,2.875 -1.17,1.512 -1.755,4.41 -1.755,8.693 v 14.914 l -2.874,2.74 h 9.977 l -2.875,-2.987 v -14.69 l 0.043,-3.459 c 0,-2.231 0.436,-3.814 1.31,-4.75 0.874,-0.936 2.347,-1.404 4.418,-1.404 2.283,0 3.854,0.711 4.714,2.134 0.691,1.153 1.036,3.624 1.036,7.412 L 7.843,-1.999 4.545,1.213 Z" /></g><g
           transform="translate(88.3975,28.9502)"
           id="g28"><path
             id="path30"
             style="fill:#ffffff;fill-opacity:1;fill-rule:nonzero;stroke:none"
             d="m 0,0 c 0.888,-3.085 2.459,-6.103 4.714,-9.052 1.409,-1.842 3.192,-3.496 5.348,-4.964 -3.227,-0.913 -6.257,-2.305 -9.09,-4.177 l -0.19,-0.135 -0.423,0.359 c 2.692,1.872 5.56,3.249 8.604,4.133 -4.059,2.875 -7.251,7.472 -9.576,13.791 L -0.74,0.337 c 4.312,1.737 6.469,4.387 6.469,7.951 0,1.467 -0.557,3.069 -1.67,4.807 C 5.482,11.717 6.194,9.965 6.194,7.839 6.194,4.395 4.129,1.782 0,0 M -10.21,13.477 V 1.37 c 0.408,0 0.796,0.037 1.163,0.112 v 11.051 c 0.774,0.225 1.704,0.337 2.79,0.337 2.748,0 4.615,-0.958 5.602,-2.875 -1.044,0.899 -1.959,1.516 -2.748,1.853 -0.79,0.337 -1.734,0.506 -2.833,0.506 -0.86,0 -1.614,-0.09 -2.262,-0.27 V 1.482 l 0.232,0.045 c 2.777,0.539 4.838,1.389 6.184,2.55 1.345,1.16 2.019,2.669 2.019,4.526 0,1.662 -0.606,3.035 -1.818,4.121 -1.213,1.086 -2.742,1.629 -4.588,1.629 -1.479,0 -2.726,-0.292 -3.741,-0.876 m -6.384,-0.584 c 3.34,2.051 6.933,3.077 10.781,3.077 2.987,0 5.45,-0.689 7.388,-2.067 1.937,-1.378 2.906,-3.13 2.906,-5.256 0,-1.737 -0.634,-3.275 -1.902,-4.615 -1.268,-1.341 -3.002,-2.31 -5.2,-2.909 0.972,-2.845 2.293,-5.615 3.963,-8.31 1.67,-2.696 3.344,-4.762 5.021,-6.2 l -0.317,-0.112 c -2.1,-0.764 -4.158,-1.842 -6.173,-3.234 l -0.317,-0.225 -0.106,0.719 c -0.902,5.795 -2.163,10.706 -3.783,14.734 l -0.085,0.225 c -0.973,-0.48 -2.276,-0.862 -3.911,-1.146 l -0.169,-0.022 v -8.401 l 3.721,-4.222 h -10.93 l -0.337,0.606 h 10.062 l -3.065,3.459 v 9.052 l 0.443,0.067 c 1.607,0.18 2.953,0.517 4.038,1.011 -0.085,0.18 -0.134,0.292 -0.148,0.337 l -0.211,0.651 c -0.015,0.045 -0.05,0.135 -0.106,0.27 -0.874,-0.27 -2.523,-0.562 -4.947,-0.876 l -0.232,-0.045 v -10.018 l 2.41,-2.672 h -9.344 l 2.748,2.672 v 7.547 l -0.169,-0.022 c -0.817,-0.195 -1.557,-0.412 -2.22,-0.652 l -0.169,-0.067 -0.19,0.449 c 0.62,0.255 1.106,0.427 1.459,0.517 l 1.12,0.292 0.169,0.045 v 1.168 c -0.832,0 -1.867,-0.195 -3.107,-0.584 l -0.233,-0.09 c 0.028,0.209 0.17,0.696 0.423,1.46 0.028,0.059 0.127,0.396 0.296,1.011 0.014,0.045 0.035,0.112 0.063,0.202 0.635,-0.045 1.128,-0.068 1.48,-0.068 0.381,0 0.733,0.023 1.057,0.068 V 11.77 c -0.648,0.418 -1.318,0.771 -2.008,1.055 z" /></g><g
           transform="translate(117.9458,29.8486)"
           id="g32"><path
             id="path34"
             style="fill:#ffffff;fill-opacity:1;fill-rule:nonzero;stroke:none"
             d="m 0,0 v -12.376 h 1.057 v 11.028 c 1.001,0.075 1.72,0.113 2.156,0.113 2.339,0 4.034,-0.233 5.085,-0.697 1.049,-0.464 1.884,-1.347 2.504,-2.65 h -0.254 c -0.69,1.033 -1.556,1.748 -2.599,2.145 -1.044,0.396 -2.572,0.595 -4.588,0.595 L 1.628,-1.887 v -10.489 h 0.676 l 3.066,0.112 c 3.974,0.3 5.961,2.351 5.961,6.155 0,2.38 -0.656,4.009 -1.966,4.885 C 8.054,-0.348 5.602,0.09 2.008,0.09 1.656,0.09 0.986,0.06 0,0 M 0,11.972 V 1.842 C 0.156,1.856 0.261,1.864 0.317,1.864 L 0.698,1.842 h 0.359 v 9.186 c 1.213,0.599 2.396,0.899 3.551,0.899 1.325,0 2.372,-0.255 3.14,-0.764 C 8.516,10.654 9.167,9.785 9.703,8.558 L 9.111,8.917 c -1.057,1.692 -2.565,2.538 -4.524,2.538 -1.099,0 -2.085,-0.33 -2.959,-0.988 V 1.842 h 0.888 c 2.692,0 4.696,0.475 6.013,1.426 1.318,0.951 1.977,2.407 1.977,4.369 0,1.721 -0.546,3.111 -1.638,4.166 C 7.776,12.859 6.342,13.387 4.566,13.387 3.002,13.387 1.48,12.915 0,11.972 M 15.833,-1.572 c 1.508,-1.243 2.262,-3.13 2.262,-5.66 0,-2.546 -0.838,-4.65 -2.515,-6.312 -1.635,-1.617 -4.038,-2.426 -7.209,-2.426 H -6.003 l -0.36,0.607 H 6.976 c 2.903,0 4.996,0.314 6.278,0.943 2.847,1.407 4.271,3.856 4.271,7.345 0,1.946 -0.649,3.713 -1.945,5.301 z M -6.616,11.635 c 3.353,2.35 7.116,3.526 11.288,3.526 3.03,0 5.503,-0.723 7.419,-2.167 1.917,-1.446 2.875,-3.313 2.875,-5.604 0,-3.055 -1.662,-5.099 -4.988,-6.132 V 1.011 c 0.338,-0.09 0.747,-0.21 1.226,-0.36 1.564,0.39 2.794,1.183 3.689,2.381 0.895,1.198 1.342,2.643 1.342,4.335 0,2.126 -0.824,4.013 -2.473,5.66 v 0.135 l 0.233,-0.202 c 1.845,-1.513 2.768,-3.452 2.768,-5.817 0,-3.265 -1.593,-5.541 -4.777,-6.829 1.382,-0.673 2.456,-1.632 3.223,-2.875 0.769,-1.243 1.153,-2.643 1.153,-4.2 0,-2.231 -0.761,-4.017 -2.283,-5.357 -1.522,-1.34 -3.551,-2.01 -6.088,-2.01 H -7.145 l 2.917,2.65 v 9.726 c -0.832,0 -1.804,-0.09 -2.917,-0.269 l -0.169,0.651 c 1.255,0.135 2.283,0.202 3.086,0.202 v 1.19 h -0.528 c -0.789,0 -1.783,-0.06 -2.981,-0.179 l 0.93,2.156 0.339,-0.022 c 0.55,-0.045 0.965,-0.068 1.247,-0.068 0.423,0 0.754,-0.022 0.993,-0.067 v 8.445 z" /></g><g
           transform="translate(157.1777,28.9502)"
           id="g36"><path
             id="path38"
             style="fill:#ffffff;fill-opacity:1;fill-rule:nonzero;stroke:none"
             d="m 0,0 c 0.889,-3.085 2.46,-6.103 4.715,-9.052 1.408,-1.842 3.191,-3.496 5.348,-4.964 -3.227,-0.913 -6.257,-2.305 -9.09,-4.177 l -0.191,-0.135 -0.423,0.359 c 2.693,1.872 5.56,3.249 8.604,4.133 -4.059,2.875 -7.25,7.472 -9.575,13.791 l -0.127,0.382 c 4.312,1.737 6.468,4.387 6.468,7.951 0,1.467 -0.557,3.069 -1.669,4.807 C 5.482,11.717 6.194,9.965 6.194,7.839 6.194,4.395 4.13,1.782 0,0 M -10.21,13.477 V 1.37 c 0.409,0 0.796,0.037 1.163,0.112 v 11.051 c 0.775,0.225 1.705,0.337 2.79,0.337 2.748,0 4.616,-0.958 5.602,-2.875 -1.043,0.899 -1.958,1.516 -2.748,1.853 -0.789,0.337 -1.734,0.506 -2.832,0.506 -0.86,0 -1.615,-0.09 -2.262,-0.27 V 1.482 l 0.232,0.045 c 2.777,0.539 4.837,1.389 6.184,2.55 1.346,1.16 2.019,2.669 2.019,4.526 0,1.662 -0.607,3.035 -1.819,4.121 -1.212,1.086 -2.741,1.629 -4.587,1.629 -1.48,0 -2.727,-0.292 -3.742,-0.876 m -6.384,-0.584 c 3.34,2.051 6.934,3.077 10.782,3.077 2.987,0 5.45,-0.689 7.387,-2.067 1.939,-1.378 2.906,-3.13 2.906,-5.256 0,-1.737 -0.633,-3.275 -1.902,-4.615 -1.267,-1.341 -3.001,-2.31 -5.2,-2.909 0.973,-2.845 2.293,-5.615 3.964,-8.31 1.67,-2.696 3.343,-4.762 5.02,-6.2 l -0.317,-0.112 c -2.1,-0.764 -4.156,-1.842 -6.172,-3.234 l -0.317,-0.225 -0.106,0.719 c -0.902,5.795 -2.164,10.706 -3.784,14.734 l -0.085,0.225 c -0.972,-0.48 -2.275,-0.862 -3.91,-1.146 l -0.169,-0.022 v -8.401 l 3.72,-4.222 h -10.929 l -0.338,0.606 h 10.063 l -3.066,3.459 v 9.052 l 0.443,0.067 c 1.608,0.18 2.953,0.517 4.039,1.011 -0.085,0.18 -0.135,0.292 -0.149,0.337 l -0.211,0.651 c -0.013,0.045 -0.05,0.135 -0.105,0.27 -0.874,-0.27 -2.524,-0.562 -4.948,-0.876 l -0.232,-0.045 v -10.018 l 2.41,-2.672 h -9.344 l 2.748,2.672 v 7.547 l -0.168,-0.022 c -0.818,-0.195 -1.557,-0.412 -2.22,-0.652 l -0.169,-0.067 -0.191,0.449 c 0.622,0.255 1.107,0.427 1.459,0.517 l 1.121,0.292 0.168,0.045 v 1.168 c -0.831,0 -1.867,-0.195 -3.107,-0.584 l -0.232,-0.09 c 0.028,0.209 0.169,0.696 0.423,1.46 0.028,0.059 0.126,0.396 0.295,1.011 0.014,0.045 0.036,0.112 0.064,0.202 0.634,-0.045 1.128,-0.068 1.479,-0.068 0.381,0 0.733,0.023 1.058,0.068 V 11.77 c -0.648,0.418 -1.318,0.771 -2.009,1.055 z" /></g><g
           transform="translate(193.7471,33.4873)"
           id="g40"><path
             id="path42"
             style="fill:#ffffff;fill-opacity:1;fill-rule:nonzero;stroke:none"
             d="M 0,0 C 0.31,-1.348 1.085,-3.197 2.325,-5.548 2.016,-5.503 1.839,-5.48 1.797,-5.48 l -1.713,0.157 c -0.774,0.074 -1.339,0.112 -1.69,0.112 -0.057,0 -0.199,-0.008 -0.423,-0.022 l 3.53,-9.951 4.714,-4.424 H -6.024 l -0.403,0.606 H 4.798 l -3.805,3.571 -3.763,10.579 c 0.479,0.135 1.029,0.203 1.649,0.203 0.762,0 1.607,-0.068 2.537,-0.203 l -0.254,0.495 c -0.901,1.766 -1.508,3.361 -1.817,4.784 z m -11.479,3.841 -2.325,-6.514 c 0.127,-0.15 0.198,-0.24 0.211,-0.269 l 0.867,-1.034 c 0.465,-0.539 1.057,-1.378 1.776,-2.515 l 0.211,-0.337 c 0.606,0.808 1.325,1.609 2.156,2.403 z m -0.951,2.605 -3.361,-9.433 c 1.07,-1.168 1.994,-2.322 2.77,-3.459 l 0.971,-1.438 c 0.014,-0.015 0.085,-0.112 0.212,-0.292 0.127,0.135 0.197,0.217 0.211,0.247 l 0.296,0.382 c 0.043,0.06 0.12,0.157 0.232,0.292 -0.985,1.617 -2.134,3.077 -3.445,4.38 l 2.706,7.592 z m 6.172,4.605 -2.198,-2.651 3.467,-9.793 0.845,0.495 -3.128,8.849 2.241,2.74 0.55,-0.247 -2.136,-2.628 2.96,-8.378 c 0.169,0.135 0.267,0.217 0.296,0.248 l 0.697,0.628 c 0.423,0.36 0.69,0.614 0.804,0.764 0.366,-1.707 0.929,-3.234 1.691,-4.582 -0.409,0.03 -0.705,0.045 -0.889,0.045 -1.338,0 -2.317,-0.225 -2.937,-0.674 l 3.826,-11.028 3.171,-2.606 H -7.674 l 2.917,2.606 -2.346,6.558 c -1.55,-1.662 -2.741,-3.242 -3.573,-4.739 l -0.486,0.135 c 0.832,1.468 2.072,3.106 3.721,4.919 l 0.169,0.225 -0.402,0.988 c -1.677,-1.483 -3.065,-3.205 -4.164,-5.166 l -0.381,0.651 c -0.732,1.243 -1.67,2.657 -2.811,4.245 l -0.211,0.27 c -1.086,-2.561 -1.628,-4.643 -1.628,-6.244 0,-0.944 0.151,-1.741 0.455,-2.393 0.302,-0.65 1.032,-1.74 2.187,-3.267 0.098,-0.135 0.253,-0.345 0.465,-0.629 h -11.415 l -0.423,0.606 h 10.76 l -0.359,0.472 c -0.93,1.197 -1.539,2.13 -1.829,2.797 -0.288,0.666 -0.433,1.448 -0.433,2.346 0,1.528 0.584,3.804 1.754,6.828 l -0.93,1.034 c -0.182,-0.48 -0.415,-1.183 -0.697,-2.112 l -0.698,-2.291 c -0.38,-1.227 -0.571,-2.246 -0.571,-3.054 0,-0.839 0.134,-1.536 0.402,-2.089 0.267,-0.555 0.832,-1.311 1.691,-2.269 0.085,-0.09 0.211,-0.232 0.381,-0.427 h -10.57 c 2.015,1.108 3.611,2.598 4.789,4.47 1.176,1.872 2.343,4.762 3.498,8.67 l 0.084,0.315 c -0.747,0.673 -1.825,1.085 -3.234,1.235 0.775,1.227 1.374,2.508 1.796,3.841 0.199,-0.195 0.318,-0.315 0.36,-0.36 l 0.951,-0.943 c 0.325,-0.33 0.712,-0.667 1.163,-1.011 l 0.381,0.988 -0.254,0.225 c -0.705,0.659 -1.297,1.191 -1.775,1.595 l -0.191,0.157 0.338,0.494 c 0.747,-0.524 1.466,-1.131 2.156,-1.819 l 2.875,8.4 -2.241,2.561 z" /></g><g
           transform="translate(226.3623,42.876)"
           id="g44"><path
             id="path46"
             style="fill:#ffffff;fill-opacity:1;fill-rule:nonzero;stroke:none"
             d="M 0,0 -0.38,-0.674 C -1.466,-0.943 -2.202,-1.441 -2.589,-2.167 -2.977,-2.894 -3.171,-4.118 -3.171,-5.84 v -23.157 h -4.545 l -0.274,0.606 h 4.249 v 22.327 c 0,2.111 0.257,3.582 0.771,4.413 C -2.456,-0.82 -1.466,-0.27 0,0 M -0.739,1.662 C -2.347,0.778 -3.382,-0.03 -3.847,-0.764 -4.552,-1.902 -4.904,-3.616 -4.904,-5.907 v -1.46 -19.788 h -3.573 l -9.977,20.574 v -12.196 l -0.022,-1.011 0.254,-3.234 c 0.283,-1.499 0.923,-2.606 1.924,-3.325 l 0.169,-0.157 c -1.944,0.689 -2.917,2.898 -2.917,6.626 l 0.021,2.111 V -5.48 l -1.141,2.358 V -16.06 c 0,-4.103 0.253,-6.791 0.761,-8.063 0.507,-1.273 1.698,-2.201 3.572,-2.785 l 1.839,-2.089 h -11.457 l -0.338,0.606 h 10.59 l -1.099,1.236 h -9.85 c 1.719,0.658 2.86,1.542 3.423,2.65 0.564,1.108 0.846,3.01 0.846,5.705 v 17.969 l -2.811,2.493 h 10.696 l -3.002,-2.134 10.231,-21.203 v 2.696 l -8.772,18.148 2.96,2.134 0.401,-0.427 -2.621,-1.887 8.032,-16.756 v 10.49 1.19 c 0,2.606 -0.201,4.346 -0.601,5.222 -0.403,0.876 -1.393,1.719 -2.971,2.527 z" /></g><g
           transform="translate(235.3662,42.6514)"
           id="g48"><path
             id="path50"
             style="fill:#ffffff;fill-opacity:1;fill-rule:nonzero;stroke:none"
             d="m 0,0 v -25.201 h 1.162 v 23.719 c 0.733,0.119 1.402,0.179 2.009,0.179 1.155,0 2.067,-0.123 2.736,-0.37 0.67,-0.247 1.343,-0.701 2.02,-1.359 -1.493,0.748 -3.094,1.123 -4.799,1.123 -0.366,0 -0.846,-0.03 -1.438,-0.09 v -23.202 c 1.579,0 2.777,0.138 3.594,0.415 0.818,0.277 1.593,0.812 2.325,1.606 2.043,2.201 3.066,5.9 3.066,11.096 0,5.076 -1.107,8.542 -3.319,10.399 C 6.017,-0.562 3.896,0 0.993,0 Z m -5.729,-28.772 -0.317,0.606 H 1.69 c 3.806,0 6.695,0.562 8.667,1.685 4.243,2.395 6.364,7.03 6.364,13.903 0,4.597 -0.951,8.011 -2.854,10.242 l -0.846,0.988 c -0.028,0.03 -0.113,0.135 -0.253,0.315 2.988,-1.992 4.481,-5.803 4.481,-11.433 0,-5.915 -1.479,-10.272 -4.439,-13.072 -2.269,-2.156 -5.975,-3.234 -11.12,-3.234 z M -6.405,1.887 h 8.328 c 4.073,0 7.089,-0.831 9.048,-2.493 2.917,-2.457 4.376,-6.305 4.376,-11.545 0,-5.436 -1.276,-9.367 -3.826,-11.792 -1.156,-1.093 -2.449,-1.865 -3.88,-2.314 -1.43,-0.449 -3.329,-0.674 -5.697,-0.674 H -7.04 l 2.896,2.359 v 23.876 z" /></g><g
           transform="translate(108,29.5)"
           id="g52"><path
             id="path54"
             style="fill:none;stroke:#ffffff;stroke-width:2;stroke-linecap:butt;stroke-linejoin:miter;stroke-miterlimit:10;stroke-dasharray:none;stroke-opacity:1"
             d="m 0,0 c 0,-12.979 -22.61,-23.5 -50.5,-23.5 -27.89,0 -50.5,10.521 -50.5,23.5 0,12.979 22.61,23.5 50.5,23.5 C -22.61,23.5 0,12.979 0,0 Z" /></g></g></g></g></svg>