<?xml version="1.0" encoding="utf-8"?>
<!-- Generator: Adobe Illustrator 24.0.2, SVG Export Plug-In . SVG Version: 6.00 Build 0)  -->
<svg version="1.1" id="Layer_1" xmlns="http://www.w3.org/2000/svg" xmlns:xlink="http://www.w3.org/1999/xlink" x="0px" y="0px"
	 viewBox="0 0 220 220" style="enable-background:new 0 0 220 220;" xml:space="preserve">
<style type="text/css">
	.st0{fill:none;stroke:#FFFFFF;stroke-width:4;}
	.st1{fill:none;stroke:#FFFFFF;stroke-width:2;}
	.st2{fill:#FFFFFF;}
</style>
<rect class="st0" width="220" height="220"/>
<line class="st1" x1="45.3" y1="117.7" x2="170" y2="117.7"/>
<g>
	<path class="st2" d="M86.2,134c0,0.1-0.1,0.2-0.2,0.2h-2.5c-0.1,0-0.2-0.1-0.2-0.3c0-0.5,0-1.2,0.1-2.2s0.1-1.7,0.1-2.2
		c0-0.1,0-0.2-0.1-0.2s-0.3,0.8-1,2.2c-0.3,0.8-0.7,1.7-1,2.5c-0.1,0.1-0.1,0.1-0.2,0.2c0,0-0.1,0-0.3,0c-0.3,0-0.4-0.1-0.4-0.1
		c-0.3-0.6-0.6-1.3-1-2.3s-0.8-1.8-1-2.3c0,0,0-0.1-0.1-0.1c0,0.1-0.1,0.1-0.1,0.2c0,0.5,0,1.2,0.1,2.1c0.1,0.9,0.1,1.6,0.1,2.1
		c0,0.1-0.1,0.3-0.2,0.3h-2.4c-0.1,0-0.1,0-0.2-0.1v-0.1c0-0.5,0-1.3,0.1-2.4c0.1-1,0.1-1.8,0.1-2.4s0-1.6-0.1-3.1
		c0-0.4,0-1-0.1-1.7v-0.1c0-0.1,0.1-0.1,0.3-0.1c0.3,0,0.6,0,1.2,0s0.9,0,1.2,0c0.1,0,0.1,0.1,0.2,0.3l2.1,4.6
		c0.1,0.3,0.3,0.5,0.3,0.5s0.1-0.2,0.3-0.6c0.5-1,1.2-2.5,2.2-4.5c0.1-0.2,0.1-0.3,0.3-0.3c0.1,0,0.3,0,0.6,0c0.3,0,0.5,0,0.6,0
		s0.3,0,0.6-0.1c0.3,0,0.4-0.1,0.6-0.1s0.2,0.1,0.2,0.1c0,0.6,0,1.4-0.1,2.5s-0.1,1.9-0.1,2.5c0,0.5,0,1.3,0.1,2.4
		C86.3,132.5,86.2,133.4,86.2,134z"/>
	<path class="st2" d="M94.5,129.1c0,0.9,0,1.5-0.1,1.7s-0.6,1.1-1.5,2.6c-0.1,0.2-0.6,0.8-1.2,1.6c-0.7,0.9-1.1,1.4-1.2,1.5
		s-0.8,0.1-2.2,0.1c-0.2,0-0.3,0-0.4-0.1c-0.1-0.2-0.1-0.4-0.2-0.7c-0.1-0.1-0.1-0.3-0.2-0.5c-0.1-0.3-0.1-0.4-0.1-0.5
		s0.1-0.1,0.1-0.1c1.3,0,2-0.3,2-0.9c0-0.1-0.3-0.6-1-1.4c-0.7-0.9-1-1.5-1.1-1.7c-0.1-0.1-0.1-0.6-0.1-1.5c0-0.1,0-0.4,0-0.8
		s0-0.6,0-0.8c0-0.1,0.1-0.2,0.2-0.2c0.2,0,0.6,0,1.1,0s0.8,0,1.1,0c0.1,0,0.1,0.1,0.1,0.2s0,0.3,0,0.6s0,0.5,0,0.6c0,0.6,0,1,0,1.3
		c0,0.1,0.1,0.5,0.4,0.9c0.3,0.5,0.5,0.7,0.6,0.7s0.3-0.2,0.6-0.7c0.2-0.4,0.3-0.8,0.4-0.9c0.1-0.4,0.1-0.9,0.1-1.4
		c0-0.1,0-0.3-0.1-0.6s-0.1-0.5-0.1-0.6s0.1-0.1,0.1-0.1c0.2,0,0.6,0,1.1,0s0.8,0,1.1,0c0.1,0,0.2,0.1,0.3,0.2
		C94.4,127.8,94.5,128.3,94.5,129.1z"/>
	<path class="st2" d="M103.3,129.5c0,1-0.5,1.9-1.5,2.4c-0.1,0.1-0.1,0.1-0.1,0.1s0.2,0.4,0.7,1c0.4,0.6,0.7,0.9,0.7,0.9
		c0,0.1-0.6,0.2-1.9,0.2c-0.5,0-0.8-0.1-0.8-0.2c-0.2-0.3-0.5-0.8-0.9-1.4c0,0-0.4-0.1-1.3-0.1c0,0.1,0,0.4,0,0.7s0,0.6,0,0.7
		c0,0.1-0.1,0.2-0.2,0.2s-0.5,0-1.1,0s-0.9,0-1,0s-0.2-0.1-0.2-0.3v-4.4c0-0.6,0-1.5-0.1-2.6c-0.1-1.2-0.1-2-0.1-2.6
		c0-0.1,0.1-0.2,0.2-0.2c0.3,0,0.6,0,1.1,0c0.1,0,0.3-0.1,0.7-0.1c0.3-0.1,0.5-0.1,0.7-0.1c0.1,0,0.1,0.1,0.1,0.2
		c0,0.2,0,0.4-0.1,0.8c0,0.3-0.1,0.6-0.1,0.8c-0.1,1-0.1,1.8-0.1,2.4c0,0.1,0,0.2,0.1,0.2s0.1-0.1,0.1-0.1c0.6-0.6,1.4-1,2.2-1
		s1.5,0.2,2,0.6C103,128.1,103.3,128.7,103.3,129.5z M100.4,129.9c0-0.6-0.3-0.8-1-0.8c-0.3,0-0.6,0.1-0.9,0.3s-0.6,0.5-0.6,0.8
		c0,0.4,0.1,0.6,0.1,0.7s0.3,0.1,0.8,0.1C100,131,100.4,130.6,100.4,129.9z"/>
	<path class="st2" d="M111,130.6c0,1.1-0.3,1.9-1,2.6c-0.7,0.7-1.5,1-2.6,1c-1,0-1.9-0.3-2.6-1s-1-1.5-1-2.6s0.3-2,1-2.7
		s1.5-1,2.6-1c1,0,1.9,0.3,2.6,1C110.6,128.7,111,129.6,111,130.6z M108.6,130.6c0-0.3-0.1-0.7-0.3-1c-0.2-0.3-0.6-0.4-0.9-0.4
		s-0.7,0.1-0.9,0.4c-0.2,0.3-0.3,0.6-0.3,1s0.1,0.7,0.3,1c0.2,0.3,0.6,0.4,0.9,0.4s0.7-0.1,0.9-0.4
		C108.6,131.4,108.6,131,108.6,130.6z"/>
	<path class="st2" d="M114.5,129.9c0,1.3,0,2.3,0,3c0,0.1,0,0.3,0,0.6c0,0.2,0,0.4,0,0.6c0,0.1-0.1,0.1-0.2,0.2
		c-0.2,0.1-0.6,0.1-1.2,0.1s-0.9,0-1.1-0.1c-0.1,0-0.1-0.1-0.2-0.2c0,0,0-0.1,0-0.3c0-0.4,0-1,0-1.9s0-1.5,0-1.9c0-2,0-2.9,0-2.7
		c0-1-0.1-1.9-0.2-2.7c0-0.1,0-0.1,0-0.1c0-0.1,0.1-0.1,0.2-0.1h2.6c0.1,0,0.2,0.1,0.1,0.1v0.1C114.5,126.4,114.5,128.3,114.5,129.9
		z"/>
	<path class="st2" d="M123,130.6c0,0.3,0,0.9,0.1,1.6c0.1,0.7,0.1,1.3,0.1,1.6c0,0.2-0.1,0.3-0.3,0.3c-0.6,0.1-1.3,0.1-2,0.1
		c-0.1,0-0.1-0.1-0.2-0.4c0-0.3-0.1-0.4-0.1-0.4c-0.1,0-0.1,0.1-0.1,0.1c-0.6,0.6-1.1,0.8-1.7,0.8c-0.9,0-1.7-0.3-2.3-1.1
		c-0.6-0.7-0.8-1.5-0.8-2.4c0-1.1,0.3-2,0.9-2.6c0.6-0.7,1.5-1,2.6-1c0.8,0,1.3,0.3,1.7,0.8l0.1,0.1c0.1,0,0.1-0.1,0.1-0.3
		c0.1-0.2,0.1-0.3,0.2-0.3c0.2,0,0.5,0.1,1,0.1c0.5,0.1,0.8,0.2,1,0.2c0.1,0,0.1,0.1,0.1,0.1v0.1C123,128.7,123,129.7,123,130.6z
		 M120.7,130.6c0-0.4-0.1-0.8-0.3-1c-0.3-0.3-0.6-0.4-1-0.4s-0.8,0.1-1,0.4c-0.2,0.3-0.3,0.6-0.3,1s0.1,0.7,0.4,1s0.6,0.4,1,0.4
		s0.8-0.1,1-0.4C120.5,131.4,120.7,131,120.7,130.6z"/>
	<path class="st2" d="M127,130.9c0,0.3,0,0.8,0,1.5s0,1.2,0,1.5c0,0.1-0.1,0.1-0.2,0.2c-0.1,0-0.6,0.1-1.1,0.1s-0.9,0-1.1-0.1
		c-0.1,0-0.1-0.1-0.2-0.1c0,0,0-0.1,0-0.2c0-0.3,0-0.8,0-1.5c0-0.6,0-1.2,0-1.5c0-1.3-0.1-2.4-0.1-3.2c0-0.1,0-0.1,0-0.1
		c0-0.1,0.1-0.1,0.2-0.1s0.3,0,0.6,0.1c0.3,0,0.5,0.1,0.6,0.1s0.3,0,0.6-0.1c0.3-0.1,0.5-0.1,0.6-0.1s0.1,0.1,0.1,0.1v0.1
		C127.1,128.6,127,129.7,127,130.9z M127.2,125.6c0,0.8-0.5,1.3-1.4,1.3c-0.4,0-0.7-0.1-1-0.3c-0.3-0.2-0.4-0.6-0.4-0.9
		s0.1-0.7,0.4-0.9s0.6-0.3,1-0.3c0.3,0,0.7,0.1,1,0.3C127.1,124.9,127.2,125.2,127.2,125.6z"/>
	<path class="st2" d="M135.2,129.2c0,0.8,0,1.3-0.1,1.5c-0.1,0.3-0.4,0.9-1,1.7c-0.5,0.7-0.9,1.3-1.3,1.6c-0.1,0.1-0.5,0.2-1.1,0.2
		s-0.9,0-1-0.1c-0.1,0-0.2-0.1-0.3-0.1c-0.3-0.3-0.7-0.8-1.3-1.6s-0.9-1.4-1-1.7c-0.1-0.3-0.2-0.8-0.2-1.5c0-0.2,0-0.5,0-0.8
		s0-0.6,0-0.8c0-0.1,0.1-0.2,0.3-0.2c0.2,0,0.6,0,1.1,0s0.8,0,1.1,0c0.1,0,0.1,0.1,0.1,0.2s0,0.3,0,0.6s0,0.5,0,0.6
		c0,0.5,0,0.9,0.1,1.2c0,0.1,0.1,0.5,0.4,0.9c0.3,0.5,0.5,0.7,0.6,0.7s0.3-0.2,0.6-0.7c0.3-0.4,0.4-0.7,0.4-0.9
		c0.1-0.3,0.1-0.8,0.1-1.3c0-0.1,0-0.3-0.1-0.6c0-0.3-0.1-0.5-0.1-0.6s0.1-0.2,0.1-0.2c0.1,0,0.3,0,0.5,0s0.4,0,0.5,0s0.3,0,0.5,0
		s0.4,0,0.5,0s0.2,0.1,0.2,0.2C135.2,127.8,135.2,128.4,135.2,129.2z"/>
</g>
<g>
	<path class="st2" d="M68.5,90.7v13.5c0,2-0.6,3.7-1.7,5c-1.1,1.3-2.6,2-4.4,2c-0.5,0-1.1-0.1-1.8-0.3v-5.8c0.3,0.1,0.6,0.2,0.8,0.2
		c0.8,0,1.2-0.6,1.2-1.9V90.7H68.5z"/>
	<path class="st2" d="M85.9,104.3h-8.3c-0.1-0.4-0.2-0.8-0.2-1.2c0-0.5,0.1-1,0.3-1.4h2.8c-0.2-1.1-0.8-1.6-1.8-1.6
		c-0.7,0-1.2,0.3-1.7,0.9s-0.6,1.3-0.6,2.2c0,0.9,0.2,1.7,0.6,2.3s1,0.9,1.6,0.9c0.5,0,1.1-0.3,1.6-0.8l3.1,3.8
		c-1.5,1.1-3.1,1.7-4.8,1.7c-2.2,0-4-0.7-5.5-2.2s-2.2-3.3-2.2-5.4s0.7-3.9,2.2-5.4s3.3-2.2,5.5-2.2c2.1,0,3.9,0.7,5.3,2.2
		s2.2,3.2,2.2,5.3C85.9,103.4,85.9,103.8,85.9,104.3z"/>
	<path class="st2" d="M88.1,96.3h5.5v7.9c0,0.6,0.1,1,0.2,1.3s0.4,0.4,0.7,0.4c0.6,0,0.9-0.5,0.9-1.6v-7.9h5.5v7.9
		c0,0.6,0.1,1,0.2,1.3s0.4,0.4,0.7,0.4c0.6,0,0.9-0.5,0.9-1.6v-7.9h5.5v9c0,1.6-0.6,3-1.7,4.2s-2.4,1.7-4,1.7s-3.1-0.7-4.4-2.1
		c-1.4,1.4-2.9,2.1-4.3,2.1c-1.8,0-3.3-0.7-4.4-2c-0.9-1-1.3-2.6-1.3-4.5L88.1,96.3L88.1,96.3z"/>
	<path class="st2" d="M125.8,104.3h-8.3c-0.1-0.4-0.2-0.8-0.2-1.2c0-0.5,0.1-1,0.3-1.4h2.8c-0.2-1.1-0.8-1.6-1.8-1.6
		c-0.7,0-1.2,0.3-1.7,0.9s-0.6,1.3-0.6,2.2c0,0.9,0.2,1.7,0.6,2.3s1,0.9,1.6,0.9c0.5,0,1.1-0.3,1.6-0.8l3.1,3.8
		c-1.5,1.1-3.1,1.7-4.8,1.7c-2.2,0-4-0.7-5.5-2.2s-2.2-3.3-2.2-5.4s0.7-3.9,2.2-5.4s3.3-2.2,5.5-2.2c2.1,0,3.9,0.7,5.3,2.2
		c1.4,1.4,2.2,3.2,2.2,5.3C125.8,103.4,125.8,103.8,125.8,104.3z"/>
	<path class="st2" d="M133.5,90.7v20H128v-20H133.5z"/>
	<path class="st2" d="M144.2,96.1v5.9c-0.4-0.2-0.7-0.3-1-0.3c-1,0-1.5,0.8-1.5,2.3v6.9h-5.5v-8c0-2.1,0.6-3.8,1.7-5
		s2.7-1.9,4.6-1.9C143,96,143.5,96,144.2,96.1z"/>
	<path class="st2" d="M149.1,117.1v-4.8c0.7,0.3,1.4,0.5,1.9,0.5c1.8,0,2.9-1,3.5-3c-1,0.6-1.9,0.8-2.8,0.8c-1.4,0-2.5-0.5-3.4-1.5
		s-1.3-2.3-1.3-3.9V96h5.5v7.9c0,0.9,0.4,1.3,1.1,1.3c0.7,0,1-0.5,1-1.4v-7.7h5.5v13c0,2.4-0.7,4.4-2.1,5.9
		c-1.6,1.8-3.6,2.7-5.9,2.7C151.2,117.7,150.1,117.5,149.1,117.1z"/>
</g>
</svg>
